<svg viewBox="0 0 135 135" fill="none" xmlns="http://www.w3.org/2000/svg">
	<g filter="url(#filter0_d_556_1416)">
	<rect width="134" height="135" rx="28" fill="#D7C7FF"/>
	<path d="M56.5826 30.971C56.2212 30.3686 55.5701 30 54.8676 30H35.5324C33.9778 30 33.0176 31.6959 33.8174 33.029L55.4174 69.029C55.7788 69.6314 56.4298 70 57.1324 70H76.4676C78.0222 70 78.9824 68.3041 78.1826 66.971L56.5826 30.971Z" fill="#E3B0F5"/>
	<path fill-rule="evenodd" clip-rule="evenodd" d="M54.8675 28H35.5322C32.423 28 30.5026 31.3919 32.1022 34.058L53.7022 70.058C54.4251 71.2628 55.7272 72 57.1322 72H76.4675C79.5766 72 81.4971 68.6081 79.8974 65.942L58.2974 29.942C57.5745 28.7372 56.2725 28 54.8675 28ZM54.8675 30C55.57 30 56.221 30.3686 56.5824 30.971L78.1824 66.971C78.9823 68.3041 78.022 70 76.4675 70H57.1322C56.4297 70 55.7787 69.6314 55.4172 69.029L33.8172 33.029C33.0174 31.6959 33.9776 30 35.5322 30H54.8675Z" fill="#8B64E1"/>
	<path d="M77.4174 30.971C77.7788 30.3686 78.4299 30 79.1324 30H98.4676C100.022 30 100.982 31.6959 100.183 33.029L78.5826 69.029C78.2212 69.6314 77.5702 70 76.8676 70H57.5324C55.9778 70 55.0176 68.3041 55.8174 66.971L77.4174 30.971Z" fill="#E3B0F5"/>
	<path fill-rule="evenodd" clip-rule="evenodd" d="M79.1323 28H98.4675C101.577 28 103.497 31.3919 101.898 34.058L80.2975 70.058C79.5746 71.2628 78.2726 72 76.8675 72H57.5323C54.4231 72 52.5027 68.6081 54.1023 65.942L75.7023 29.942C76.4252 28.7372 77.7272 28 79.1323 28ZM79.1323 30C78.4298 30 77.7788 30.3686 77.4173 30.971L55.8173 66.971C55.0175 68.3041 55.9777 70 57.5323 70H76.8675C77.5701 70 78.2211 69.6314 78.5825 69.029L100.183 33.029C100.982 31.6959 100.022 30 98.4675 30H79.1323Z" fill="#8B64E1"/>
	<path fill-rule="evenodd" clip-rule="evenodd" d="M79.5021 31.1354C79.9797 31.4127 80.142 32.0247 79.8647 32.5023L70.8647 48.0023C70.5874 48.4799 69.9754 48.6423 69.4978 48.365C69.0202 48.0876 68.8578 47.4756 69.1351 46.998L78.1351 31.498C78.4125 31.0204 79.0244 30.8581 79.5021 31.1354Z" fill="#FFF9F9"/>
	<path fill-rule="evenodd" clip-rule="evenodd" d="M35.4979 31.1354C35.0203 31.4127 34.858 32.0247 35.1353 32.5023L44.1353 48.0023C44.4126 48.4799 45.0246 48.6423 45.5022 48.365C45.9798 48.0876 46.1422 47.4756 45.8649 46.998L36.8649 31.498C36.5875 31.0204 35.9756 30.8581 35.4979 31.1354Z" fill="white"/>
	<path d="M54.5 33.2812C54.5 33.9889 53.9404 34.5625 53.25 34.5625C52.5596 34.5625 52 33.9889 52 33.2812C52 32.5736 52.5596 32 53.25 32C53.9404 32 54.5 32.5736 54.5 33.2812Z" fill="#AF67C5"/>
	<path d="M50.1098 33.5938C50.1098 34.474 49.4136 35.1875 48.5549 35.1875C47.6961 35.1875 47 34.474 47 33.5938C47 32.7135 47.6961 32 48.5549 32C49.4136 32 50.1098 32.7135 50.1098 33.5938Z" fill="#AF67C5"/>
	<path d="M53.9999 38.1562C53.9999 39.0365 53.3038 39.75 52.445 39.75C51.5863 39.75 50.8901 39.0365 50.8901 38.1562C50.8901 37.276 51.5863 36.5625 52.445 36.5625C53.3038 36.5625 53.9999 37.276 53.9999 38.1562Z" fill="#AF67C5"/>
	<path d="M57.5549 35.9844C57.5549 36.4245 57.2068 36.7812 56.7774 36.7812C56.3481 36.7812 56 36.4245 56 35.9844C56 35.5443 56.3481 35.1875 56.7774 35.1875C57.2068 35.1875 57.5549 35.5443 57.5549 35.9844Z" fill="#AF67C5"/>
	<path d="M49.3322 37.3594C49.3322 37.7995 48.9842 38.1562 48.5548 38.1562C48.1254 38.1562 47.7773 37.7995 47.7773 37.3594C47.7773 36.9193 48.1254 36.5625 48.5548 36.5625C48.9842 36.5625 49.3322 36.9193 49.3322 37.3594Z" fill="#AF67C5"/>
	<path d="M44.9999 32.4844C44.9999 32.9245 44.6519 33.2812 44.2225 33.2812C43.7931 33.2812 43.4451 32.9245 43.4451 32.4844C43.4451 32.0443 43.7931 31.6875 44.2225 31.6875C44.6519 31.6875 44.9999 32.0443 44.9999 32.4844Z" fill="#AF67C5"/>
	<path d="M56.7773 41.5469C56.7773 41.987 56.4292 42.3438 55.9999 42.3438C55.5705 42.3438 55.2224 41.987 55.2224 41.5469C55.2224 41.1068 55.5705 40.75 55.9999 40.75C56.4292 40.75 56.7773 41.1068 56.7773 41.5469Z" fill="#AF67C5"/>
	<path d="M52.7773 42.3438C52.7773 42.7839 52.4292 43.1406 51.9999 43.1406C51.5705 43.1406 51.2224 42.7839 51.2224 42.3438C51.2224 41.9036 51.5705 41.5469 51.9999 41.5469C52.4292 41.5469 52.7773 41.9036 52.7773 42.3438Z" fill="#AF67C5"/>
	<path d="M60.5305 39.4531C60.5305 40.1694 59.964 40.75 59.2652 40.75C58.5665 40.75 58 40.1694 58 39.4531C58 38.7369 58.5665 38.1562 59.2652 38.1562C59.964 38.1562 60.5305 38.7369 60.5305 39.4531Z" fill="#AF67C5"/>
	<path d="M62.1799 43.1406C62.1799 43.5807 61.8318 43.9375 61.4024 43.9375C60.9731 43.9375 60.625 43.5807 60.625 43.1406C60.625 42.7005 60.9731 42.3438 61.4024 42.3438C61.8318 42.3438 62.1799 42.7005 62.1799 43.1406Z" fill="#AF67C5"/>
	<path d="M94 83C94 97.9117 81.9117 110 67 110C52.0883 110 40 97.9117 40 83C40 68.0883 52.0883 56 67 56C81.9117 56 94 68.0883 94 83Z" fill="#E3B0F5"/>
	<path fill-rule="evenodd" clip-rule="evenodd" d="M96 83C96 99.0163 83.0163 112 67 112C50.9837 112 38 99.0163 38 83C38 66.9837 50.9837 54 67 54C83.0163 54 96 66.9837 96 83ZM67 110C81.9117 110 94 97.9117 94 83C94 68.0883 81.9117 56 67 56C52.0883 56 40 68.0883 40 83C40 97.9117 52.0883 110 67 110Z" fill="#886BE6"/>
	<path fill-rule="evenodd" clip-rule="evenodd" d="M42 84C41.4477 84 41 83.5523 41 83C41 68.6406 52.6406 57 67 57C67.5523 57 68 57.4477 68 58C68 58.5523 67.5523 59 67 59C53.7452 59 43 69.7452 43 83C43 83.5523 42.5523 84 42 84Z" fill="#8B65E2"/>
	<path fill-rule="evenodd" clip-rule="evenodd" d="M92 82C92.5523 82 93 82.4477 93 83C93 97.3594 81.3594 109 67 109C66.4477 109 66 108.552 66 108C66 107.448 66.4477 107 67 107C80.2548 107 91 96.2548 91 83C91 82.4477 91.4477 82 92 82Z" fill="#8B65E2"/>
	<path d="M87 83C87 94.0457 78.0457 103 67 103C55.9543 103 47 94.0457 47 83C47 71.9543 55.9543 63 67 63C78.0457 63 87 71.9543 87 83Z" fill="#D7C7FF"/>
	<path fill-rule="evenodd" clip-rule="evenodd" d="M89 83C89 95.1503 79.1503 105 67 105C54.8497 105 45 95.1503 45 83C45 70.8497 54.8497 61 67 61C79.1503 61 89 70.8497 89 83ZM67 103C78.0457 103 87 94.0457 87 83C87 71.9543 78.0457 63 67 63C55.9543 63 47 71.9543 47 83C47 94.0457 55.9543 103 67 103Z" fill="#886BE6"/>
	<path fill-rule="evenodd" clip-rule="evenodd" d="M67 100C76.3888 100 84 92.3888 84 83C84 82.4477 84.4477 82 85 82C85.5523 82 86 82.4477 86 83C86 93.4934 77.4934 102 67 102C66.4477 102 66 101.552 66 101C66 100.448 66.4477 100 67 100Z" fill="white"/>
	<path fill-rule="evenodd" clip-rule="evenodd" d="M67 66C57.6112 66 50 73.6112 50 83C50 83.5523 49.5523 84 49 84C48.4477 84 48 83.5523 48 83C48 72.5066 56.5066 64 67 64C67.5523 64 68 64.4477 68 65C68 65.5523 67.5523 66 67 66Z" fill="#C5B771"/>
	<path d="M56 80.4L62.875 79L64.9375 75.5L67 72L71.125 79L78 80.4L72.5 86L73.875 93L67 89.5L60.125 93L61.5 86L56 80.4Z" fill="#C5B771"/>
	<path fill-rule="evenodd" clip-rule="evenodd" d="M62.875 79L67 72L71.125 79L78 80.4L72.5 86L73.875 93L67 89.5L60.125 93L61.5 86L56 80.4L62.875 79ZM59.3343 86.6491L54.5732 81.8014C54.0595 81.2784 53.8731 80.5162 54.0875 79.8152C54.3018 79.1141 54.8826 78.5865 55.601 78.4402L61.6038 77.2178L65.277 70.9846C65.6365 70.3745 66.2919 70 67 70C67.7082 70 68.3636 70.3745 68.7231 70.9846L72.3963 77.2178L78.3991 78.4402C79.1175 78.5865 79.6982 79.1141 79.9126 79.8152C80.127 80.5162 79.9406 81.2784 79.4269 81.8014L74.6658 86.6491L75.8375 92.6145C75.985 93.3654 75.6911 94.1346 75.0805 94.5959C74.4699 95.0571 73.6496 95.1295 72.9677 94.7823L67 91.7443L61.0324 94.7823C60.3505 95.1295 59.5302 95.0571 58.9196 94.5959C58.309 94.1346 58.0151 93.3654 58.1626 92.6145L59.3343 86.6491Z" fill="#886BE6"/>
	</g>
	<defs>
	<filter id="filter0_d_556_1416" x="0" y="0" width="136" height="137" filterUnits="userSpaceOnUse" color-interpolation-filters="sRGB">
	<feFlood flood-opacity="0" result="BackgroundImageFix"/>
	<feColorMatrix in="SourceAlpha" type="matrix" values="0 0 0 0 0 0 0 0 0 0 0 0 0 0 0 0 0 0 127 0" result="hardAlpha"/>
	<feOffset dx="2" dy="2"/>
	<feColorMatrix type="matrix" values="0 0 0 0 0.637788 0 0 0 0 0.545996 0 0 0 0 0.47948 0 0 0 0.2 0"/>
	<feBlend mode="normal" in2="BackgroundImageFix" result="effect1_dropShadow_556_1416"/>
	<feBlend mode="normal" in="SourceGraphic" in2="effect1_dropShadow_556_1416" result="shape"/>
	</filter>
	</defs>
</svg>