<svg viewBox="0 0 135 135" fill="none" xmlns="http://www.w3.org/2000/svg">
	<g filter="url(#filter0_d_556_1212)">
	<rect width="134" height="135" rx="28" fill="#745BC4"/>
	<path d="M57.5826 28.971C57.2212 28.3686 56.5701 28 55.8676 28H36.5324C34.9778 28 34.0176 29.6959 34.8174 31.029L56.4174 67.029C56.7788 67.6314 57.4298 68 58.1324 68H77.4676C79.0222 68 79.9824 66.3041 79.1826 64.971L57.5826 28.971Z" fill="#E3B0F5"/>
	<path fill-rule="evenodd" clip-rule="evenodd" d="M55.8675 26H36.5322C33.423 26 31.5026 29.3919 33.1022 32.058L54.7022 68.058C55.4251 69.2628 56.7272 70 58.1322 70H77.4675C80.5766 70 82.4971 66.6081 80.8974 63.942L59.2974 27.942C58.5745 26.7372 57.2725 26 55.8675 26ZM55.8675 28C56.57 28 57.221 28.3686 57.5824 28.971L79.1824 64.971C79.9823 66.3041 79.022 68 77.4675 68H58.1322C57.4297 68 56.7787 67.6314 56.4172 67.029L34.8172 31.029C34.0174 29.6959 34.9776 28 36.5322 28H55.8675Z" fill="#8B64E1"/>
	<path d="M78.4174 28.971C78.7788 28.3686 79.4299 28 80.1324 28H99.4676C101.022 28 101.982 29.6959 101.183 31.029L79.5826 67.029C79.2212 67.6314 78.5702 68 77.8676 68H58.5324C56.9778 68 56.0176 66.3041 56.8174 64.971L78.4174 28.971Z" fill="#E3B0F5"/>
	<path fill-rule="evenodd" clip-rule="evenodd" d="M80.1323 26H99.4675C102.577 26 104.497 29.3919 102.898 32.058L81.2975 68.058C80.5746 69.2628 79.2726 70 77.8675 70H58.5323C55.4231 70 53.5027 66.6081 55.1023 63.942L76.7023 27.942C77.4252 26.7372 78.7272 26 80.1323 26ZM80.1323 28C79.4298 28 78.7788 28.3686 78.4173 28.971L56.8173 64.971C56.0175 66.3041 56.9777 68 58.5323 68H77.8675C78.5701 68 79.2211 67.6314 79.5825 67.029L101.183 31.029C101.982 29.6959 101.022 28 99.4675 28H80.1323Z" fill="#8B64E1"/>
	<path fill-rule="evenodd" clip-rule="evenodd" d="M80.5021 29.1354C80.9797 29.4127 81.142 30.0247 80.8647 30.5023L71.8647 46.0023C71.5874 46.4799 70.9754 46.6423 70.4978 46.365C70.0202 46.0876 69.8578 45.4756 70.1351 44.998L79.1351 29.498C79.4125 29.0204 80.0244 28.8581 80.5021 29.1354Z" fill="#FFF9F9"/>
	<path fill-rule="evenodd" clip-rule="evenodd" d="M36.4979 29.1354C36.0203 29.4127 35.858 30.0247 36.1353 30.5023L45.1353 46.0023C45.4126 46.4799 46.0246 46.6423 46.5022 46.365C46.9798 46.0876 47.1422 45.4756 46.8649 44.998L37.8649 29.498C37.5875 29.0204 36.9756 28.8581 36.4979 29.1354Z" fill="white"/>
	<path d="M55.5 31.2812C55.5 31.9889 54.9404 32.5625 54.25 32.5625C53.5596 32.5625 53 31.9889 53 31.2812C53 30.5736 53.5596 30 54.25 30C54.9404 30 55.5 30.5736 55.5 31.2812Z" fill="#AF67C5"/>
	<path d="M51.1098 31.5938C51.1098 32.474 50.4136 33.1875 49.5549 33.1875C48.6961 33.1875 48 32.474 48 31.5938C48 30.7135 48.6961 30 49.5549 30C50.4136 30 51.1098 30.7135 51.1098 31.5938Z" fill="#AF67C5"/>
	<path d="M54.9999 36.1562C54.9999 37.0365 54.3038 37.75 53.445 37.75C52.5863 37.75 51.8901 37.0365 51.8901 36.1562C51.8901 35.276 52.5863 34.5625 53.445 34.5625C54.3038 34.5625 54.9999 35.276 54.9999 36.1562Z" fill="#AF67C5"/>
	<path d="M58.5549 33.9844C58.5549 34.4245 58.2068 34.7812 57.7774 34.7812C57.3481 34.7812 57 34.4245 57 33.9844C57 33.5443 57.3481 33.1875 57.7774 33.1875C58.2068 33.1875 58.5549 33.5443 58.5549 33.9844Z" fill="#AF67C5"/>
	<path d="M50.3322 35.3594C50.3322 35.7995 49.9842 36.1562 49.5548 36.1562C49.1254 36.1562 48.7773 35.7995 48.7773 35.3594C48.7773 34.9193 49.1254 34.5625 49.5548 34.5625C49.9842 34.5625 50.3322 34.9193 50.3322 35.3594Z" fill="#AF67C5"/>
	<path d="M45.9999 30.4844C45.9999 30.9245 45.6519 31.2812 45.2225 31.2812C44.7931 31.2812 44.4451 30.9245 44.4451 30.4844C44.4451 30.0443 44.7931 29.6875 45.2225 29.6875C45.6519 29.6875 45.9999 30.0443 45.9999 30.4844Z" fill="#AF67C5"/>
	<path d="M57.7773 39.5469C57.7773 39.987 57.4292 40.3438 56.9999 40.3438C56.5705 40.3438 56.2224 39.987 56.2224 39.5469C56.2224 39.1068 56.5705 38.75 56.9999 38.75C57.4292 38.75 57.7773 39.1068 57.7773 39.5469Z" fill="#AF67C5"/>
	<path d="M53.7773 40.3438C53.7773 40.7839 53.4292 41.1406 52.9999 41.1406C52.5705 41.1406 52.2224 40.7839 52.2224 40.3438C52.2224 39.9036 52.5705 39.5469 52.9999 39.5469C53.4292 39.5469 53.7773 39.9036 53.7773 40.3438Z" fill="#AF67C5"/>
	<path d="M61.5305 37.4531C61.5305 38.1694 60.964 38.75 60.2652 38.75C59.5665 38.75 59 38.1694 59 37.4531C59 36.7369 59.5665 36.1562 60.2652 36.1562C60.964 36.1562 61.5305 36.7369 61.5305 37.4531Z" fill="#AF67C5"/>
	<path d="M63.1799 41.1406C63.1799 41.5807 62.8318 41.9375 62.4024 41.9375C61.9731 41.9375 61.625 41.5807 61.625 41.1406C61.625 40.7005 61.9731 40.3438 62.4024 40.3438C62.8318 40.3438 63.1799 40.7005 63.1799 41.1406Z" fill="#AF67C5"/>
	<path d="M95 81C95 95.9117 82.9117 108 68 108C53.0883 108 41 95.9117 41 81C41 66.0883 53.0883 54 68 54C82.9117 54 95 66.0883 95 81Z" fill="#E3B0F5"/>
	<path fill-rule="evenodd" clip-rule="evenodd" d="M97 81C97 97.0163 84.0163 110 68 110C51.9837 110 39 97.0163 39 81C39 64.9837 51.9837 52 68 52C84.0163 52 97 64.9837 97 81ZM68 108C82.9117 108 95 95.9117 95 81C95 66.0883 82.9117 54 68 54C53.0883 54 41 66.0883 41 81C41 95.9117 53.0883 108 68 108Z" fill="#886BE6"/>
	<path fill-rule="evenodd" clip-rule="evenodd" d="M43 82C42.4477 82 42 81.5523 42 81C42 66.6406 53.6406 55 68 55C68.5523 55 69 55.4477 69 56C69 56.5523 68.5523 57 68 57C54.7452 57 44 67.7452 44 81C44 81.5523 43.5523 82 43 82Z" fill="#8B65E2"/>
	<path fill-rule="evenodd" clip-rule="evenodd" d="M93 80C93.5523 80 94 80.4477 94 81C94 95.3594 82.3594 107 68 107C67.4477 107 67 106.552 67 106C67 105.448 67.4477 105 68 105C81.2548 105 92 94.2548 92 81C92 80.4477 92.4477 80 93 80Z" fill="#8B65E2"/>
	<path d="M88 81C88 92.0457 79.0457 101 68 101C56.9543 101 48 92.0457 48 81C48 69.9543 56.9543 61 68 61C79.0457 61 88 69.9543 88 81Z" fill="#D7C7FF"/>
	<path fill-rule="evenodd" clip-rule="evenodd" d="M90 81C90 93.1503 80.1503 103 68 103C55.8497 103 46 93.1503 46 81C46 68.8497 55.8497 59 68 59C80.1503 59 90 68.8497 90 81ZM68 101C79.0457 101 88 92.0457 88 81C88 69.9543 79.0457 61 68 61C56.9543 61 48 69.9543 48 81C48 92.0457 56.9543 101 68 101Z" fill="#886BE6"/>
	<path fill-rule="evenodd" clip-rule="evenodd" d="M68 98C77.3888 98 85 90.3888 85 81C85 80.4477 85.4477 80 86 80C86.5523 80 87 80.4477 87 81C87 91.4934 78.4934 100 68 100C67.4477 100 67 99.5523 67 99C67 98.4477 67.4477 98 68 98Z" fill="white"/>
	<path fill-rule="evenodd" clip-rule="evenodd" d="M68 64C58.6112 64 51 71.6112 51 81C51 81.5523 50.5523 82 50 82C49.4477 82 49 81.5523 49 81C49 70.5066 57.5066 62 68 62C68.5523 62 69 62.4477 69 63C69 63.5523 68.5523 64 68 64Z" fill="#C5B771"/>
	<path d="M70.3867 89H67V75.9453L62.957 77.1992V74.4453L70.0234 71.9141H70.3867V89Z" fill="#C5B771"/>
	<path fill-rule="evenodd" clip-rule="evenodd" d="M72.3867 89C72.3867 90.1046 71.4913 91 70.3867 91H67C65.8954 91 65 90.1046 65 89V78.6596L63.5495 79.1095C62.9425 79.2977 62.2822 79.1863 61.7706 78.8093C61.259 78.4324 60.957 77.8347 60.957 77.1992V74.4453C60.957 73.6008 61.4875 72.8473 62.2826 72.5625L69.349 70.0312C69.5654 69.9537 69.7936 69.9141 70.0234 69.9141H70.3867C71.4913 69.9141 72.3867 70.8095 72.3867 71.9141V89ZM67 75.9453V89H70.3867V71.9141H70.0234L62.957 74.4453V77.1992L67 75.9453Z" fill="#886BE6"/>
	</g>
	<defs>
	<filter id="filter0_d_556_1212" x="0" y="0" width="136" height="137" filterUnits="userSpaceOnUse" color-interpolation-filters="sRGB">
	<feFlood flood-opacity="0" result="BackgroundImageFix"/>
	<feColorMatrix in="SourceAlpha" type="matrix" values="0 0 0 0 0 0 0 0 0 0 0 0 0 0 0 0 0 0 127 0" result="hardAlpha"/>
	<feOffset dx="2" dy="2"/>
	<feColorMatrix type="matrix" values="0 0 0 0 0.637788 0 0 0 0 0.545996 0 0 0 0 0.47948 0 0 0 0.2 0"/>
	<feBlend mode="normal" in2="BackgroundImageFix" result="effect1_dropShadow_556_1212"/>
	<feBlend mode="normal" in="SourceGraphic" in2="effect1_dropShadow_556_1212" result="shape"/>
	</filter>
	</defs>
</svg>