<svg viewBox="0 0 135 135" fill="none" xmlns="http://www.w3.org/2000/svg">
	<rect width="134" height="135" rx="28" fill="#E3B0F5"/>
	<path d="M57.5826 26.971C57.2212 26.3686 56.5701 26 55.8676 26H36.5324C34.9778 26 34.0176 27.6959 34.8174 29.029L56.4174 65.029C56.7788 65.6314 57.4298 66 58.1324 66H77.4676C79.0222 66 79.9824 64.3041 79.1826 62.971L57.5826 26.971Z" fill="#E3B0F5"/>
	<path fill-rule="evenodd" clip-rule="evenodd" d="M55.8675 24H36.5322C33.423 24 31.5026 27.3919 33.1022 30.058L54.7022 66.058C55.4251 67.2628 56.7272 68 58.1322 68H77.4675C80.5766 68 82.4971 64.6081 80.8974 61.942L59.2974 25.942C58.5745 24.7372 57.2725 24 55.8675 24ZM55.8675 26C56.57 26 57.221 26.3686 57.5824 26.971L79.1824 62.971C79.9823 64.3041 79.022 66 77.4675 66H58.1322C57.4297 66 56.7787 65.6314 56.4172 65.029L34.8172 29.029C34.0174 27.6959 34.9776 26 36.5322 26H55.8675Z" fill="#8B64E1"/>
	<path d="M78.4174 26.971C78.7788 26.3686 79.4299 26 80.1324 26H99.4676C101.022 26 101.982 27.6959 101.183 29.029L79.5826 65.029C79.2212 65.6314 78.5702 66 77.8676 66H58.5324C56.9778 66 56.0176 64.3041 56.8174 62.971L78.4174 26.971Z" fill="#E3B0F5"/>
	<path fill-rule="evenodd" clip-rule="evenodd" d="M80.1323 24H99.4675C102.577 24 104.497 27.3919 102.898 30.058L81.2975 66.058C80.5746 67.2628 79.2726 68 77.8675 68H58.5323C55.4231 68 53.5027 64.6081 55.1023 61.942L76.7023 25.942C77.4252 24.7372 78.7272 24 80.1323 24ZM80.1323 26C79.4298 26 78.7788 26.3686 78.4173 26.971L56.8173 62.971C56.0175 64.3041 56.9777 66 58.5323 66H77.8675C78.5701 66 79.2211 65.6314 79.5825 65.029L101.183 29.029C101.982 27.6959 101.022 26 99.4675 26H80.1323Z" fill="#8B64E1"/>
	<path fill-rule="evenodd" clip-rule="evenodd" d="M80.5021 27.1354C80.9797 27.4127 81.142 28.0247 80.8647 28.5023L71.8647 44.0023C71.5874 44.4799 70.9754 44.6423 70.4978 44.365C70.0202 44.0876 69.8578 43.4756 70.1351 42.998L79.1351 27.498C79.4125 27.0204 80.0244 26.8581 80.5021 27.1354Z" fill="#FFF9F9"/>
	<path fill-rule="evenodd" clip-rule="evenodd" d="M36.4979 27.1354C36.0203 27.4127 35.858 28.0247 36.1353 28.5023L45.1353 44.0023C45.4126 44.4799 46.0246 44.6423 46.5022 44.365C46.9798 44.0876 47.1422 43.4756 46.8649 42.998L37.8649 27.498C37.5875 27.0204 36.9756 26.8581 36.4979 27.1354Z" fill="white"/>
	<path d="M55.5 29.2812C55.5 29.9889 54.9404 30.5625 54.25 30.5625C53.5596 30.5625 53 29.9889 53 29.2812C53 28.5736 53.5596 28 54.25 28C54.9404 28 55.5 28.5736 55.5 29.2812Z" fill="#AF67C5"/>
	<path d="M51.1098 29.5938C51.1098 30.474 50.4136 31.1875 49.5549 31.1875C48.6961 31.1875 48 30.474 48 29.5938C48 28.7135 48.6961 28 49.5549 28C50.4136 28 51.1098 28.7135 51.1098 29.5938Z" fill="#AF67C5"/>
	<path d="M54.9999 34.1562C54.9999 35.0365 54.3038 35.75 53.445 35.75C52.5863 35.75 51.8901 35.0365 51.8901 34.1562C51.8901 33.276 52.5863 32.5625 53.445 32.5625C54.3038 32.5625 54.9999 33.276 54.9999 34.1562Z" fill="#AF67C5"/>
	<path d="M58.5549 31.9844C58.5549 32.4245 58.2068 32.7812 57.7774 32.7812C57.3481 32.7812 57 32.4245 57 31.9844C57 31.5443 57.3481 31.1875 57.7774 31.1875C58.2068 31.1875 58.5549 31.5443 58.5549 31.9844Z" fill="#AF67C5"/>
	<path d="M50.3322 33.3594C50.3322 33.7995 49.9842 34.1562 49.5548 34.1562C49.1254 34.1562 48.7773 33.7995 48.7773 33.3594C48.7773 32.9193 49.1254 32.5625 49.5548 32.5625C49.9842 32.5625 50.3322 32.9193 50.3322 33.3594Z" fill="#AF67C5"/>
	<path d="M45.9999 28.4844C45.9999 28.9245 45.6519 29.2812 45.2225 29.2812C44.7931 29.2812 44.4451 28.9245 44.4451 28.4844C44.4451 28.0443 44.7931 27.6875 45.2225 27.6875C45.6519 27.6875 45.9999 28.0443 45.9999 28.4844Z" fill="#AF67C5"/>
	<path d="M57.7773 37.5469C57.7773 37.987 57.4292 38.3438 56.9999 38.3438C56.5705 38.3438 56.2224 37.987 56.2224 37.5469C56.2224 37.1068 56.5705 36.75 56.9999 36.75C57.4292 36.75 57.7773 37.1068 57.7773 37.5469Z" fill="#AF67C5"/>
	<path d="M53.7773 38.3438C53.7773 38.7839 53.4292 39.1406 52.9999 39.1406C52.5705 39.1406 52.2224 38.7839 52.2224 38.3438C52.2224 37.9036 52.5705 37.5469 52.9999 37.5469C53.4292 37.5469 53.7773 37.9036 53.7773 38.3438Z" fill="#AF67C5"/>
	<path d="M61.5305 35.4531C61.5305 36.1694 60.964 36.75 60.2652 36.75C59.5665 36.75 59 36.1694 59 35.4531C59 34.7369 59.5665 34.1562 60.2652 34.1562C60.964 34.1562 61.5305 34.7369 61.5305 35.4531Z" fill="#AF67C5"/>
	<path d="M63.1799 39.1406C63.1799 39.5807 62.8318 39.9375 62.4024 39.9375C61.9731 39.9375 61.625 39.5807 61.625 39.1406C61.625 38.7005 61.9731 38.3438 62.4024 38.3438C62.8318 38.3438 63.1799 38.7005 63.1799 39.1406Z" fill="#AF67C5"/>
	<path d="M95 79C95 93.9117 82.9117 106 68 106C53.0883 106 41 93.9117 41 79C41 64.0883 53.0883 52 68 52C82.9117 52 95 64.0883 95 79Z" fill="#E3B0F5"/>
	<path fill-rule="evenodd" clip-rule="evenodd" d="M97 79C97 95.0163 84.0163 108 68 108C51.9837 108 39 95.0163 39 79C39 62.9837 51.9837 50 68 50C84.0163 50 97 62.9837 97 79ZM68 106C82.9117 106 95 93.9117 95 79C95 64.0883 82.9117 52 68 52C53.0883 52 41 64.0883 41 79C41 93.9117 53.0883 106 68 106Z" fill="#886BE6"/>
	<path fill-rule="evenodd" clip-rule="evenodd" d="M43 80C42.4477 80 42 79.5523 42 79C42 64.6406 53.6406 53 68 53C68.5523 53 69 53.4477 69 54C69 54.5523 68.5523 55 68 55C54.7452 55 44 65.7452 44 79C44 79.5523 43.5523 80 43 80Z" fill="#8B65E2"/>
	<path fill-rule="evenodd" clip-rule="evenodd" d="M93 78C93.5523 78 94 78.4477 94 79C94 93.3594 82.3594 105 68 105C67.4477 105 67 104.552 67 104C67 103.448 67.4477 103 68 103C81.2548 103 92 92.2548 92 79C92 78.4477 92.4477 78 93 78Z" fill="#8B65E2"/>
	<path d="M88 79C88 90.0457 79.0457 99 68 99C56.9543 99 48 90.0457 48 79C48 67.9543 56.9543 59 68 59C79.0457 59 88 67.9543 88 79Z" fill="#D7C7FF"/>
	<path fill-rule="evenodd" clip-rule="evenodd" d="M90 79C90 91.1503 80.1503 101 68 101C55.8497 101 46 91.1503 46 79C46 66.8497 55.8497 57 68 57C80.1503 57 90 66.8497 90 79ZM68 99C79.0457 99 88 90.0457 88 79C88 67.9543 79.0457 59 68 59C56.9543 59 48 67.9543 48 79C48 90.0457 56.9543 99 68 99Z" fill="#886BE6"/>
	<path fill-rule="evenodd" clip-rule="evenodd" d="M68 96C77.3888 96 85 88.3888 85 79C85 78.4477 85.4477 78 86 78C86.5523 78 87 78.4477 87 79C87 89.4934 78.4934 98 68 98C67.4477 98 67 97.5523 67 97C67 96.4477 67.4477 96 68 96Z" fill="white"/>
	<path fill-rule="evenodd" clip-rule="evenodd" d="M68 62C58.6112 62 51 69.6112 51 79C51 79.5523 50.5523 80 50 80C49.4477 80 49 79.5523 49 79C49 68.5066 57.5066 60 68 60C68.5523 60 69 60.4477 69 61C69 61.5523 68.5523 62 68 62Z" fill="#C5B771"/>
</svg>