<svg xmlns="http://www.w3.org/2000/svg" viewBox="0 0 1920 1080" fill="none">
	<g clip-path="url(#clip0_88_108)">
	<rect width="1920" height="1080" fill="url(#paint0_angular_88_108)"/>
	<path d="M337.611 777C81.6113 575.4 -131.722 506.333 -206.389 497L-239.389 1124H1018.11C1232.44 1128.33 1661.11 1134.4 1661.11 1124C1661.11 1111 1667.61 908 1661.11 899.5C1654.61 891 1496.11 591 1419.11 741C1357.51 861 1094.11 942 970.111 967.5C865.945 988 593.611 978.6 337.611 777Z" fill="url(#paint1_radial_88_108)"/>
	<circle r="440.5" transform="matrix(-1 0 0 1 1738.5 8.5)" fill="url(#paint2_linear_88_108)"/>
	<circle r="342" transform="matrix(1 0 0 -1 -129 461)" fill="url(#paint3_linear_88_108)"/>
	<circle r="692" transform="matrix(-1 0 0 1 1483 1298)" fill="url(#paint4_diamond_88_108)"/>
	</g>

	<defs xmlns="http://www.w3.org/2000/svg">

		<linearGradient xmlns="http://www.w3.org/2000/svg" id="paint0_angular_88_108" x1="0" y1="0" x2="100" y2="200" gradientUnits="userSpaceOnUse">
			<stop stop-color="#FAFC99"/>
			<stop stop-color="#FD96AB"/>
			<stop offset="1" stop-color="#ABA9FF"/>
		</linearGradient>
		<radialGradient id="paint1_radial_88_108" cx="0" cy="0" r="1" gradientUnits="userSpaceOnUse" gradientTransform="translate(520.111 767.5) rotate(96.2882) scale(547.796 1647.86)">
			<stop stop-color="#E18AFF"/>
			<stop offset="1" stop-color="#F3F755"/>
		</radialGradient>
		<linearGradient id="paint2_linear_88_108" x1="1119" y1="567.5" x2="-238" y2="313.5" gradientUnits="userSpaceOnUse">
			<stop stop-color="#7F7EF3"/>
			<stop offset="1" stop-color="#964CD0"/>
		</linearGradient>
		<linearGradient id="paint3_linear_88_108" x1="171" y1="414.5" x2="457.5" y2="-95" gradientUnits="userSpaceOnUse">
			<stop stop-color="#8C60DC"/>
			<stop offset="1" stop-color="#8473EC"/>
		</linearGradient>
		<radialGradient xmlns="http://www.w3.org/2000/svg" gradientTransform="translate(-1200 -396.722) rotate(0) scale(2378.96 5864)" gradientUnits="userSpaceOnUse" r="1" cy="0" cx="0" id="paint4_diamond_88_108">
			
			<stop offset="0.272196" stop-color="#FD96AB"/>
			<stop offset="0.802957" stop-color="#FAFC99"/>
		</radialGradient>
		<clipPath id="clip0_88_108">
			<rect width="1920" height="1080" fill="white"/>
		</clipPath>
	</defs>
</svg>